<svg width="146" height="48" viewBox="0 0 146 48" fill="none" xmlns="http://www.w3.org/2000/svg">
<g clip-path="url(#clip0_2115_5920)">
<path d="M1.93791 45.5003V47.8126H0.738281V42.2981H3.93057V43.343H1.93791V44.4217H3.93057V45.5003H1.93791Z" fill="#00685E"/>
<path d="M5.58353 43.3666V44.4587H7.46867V45.5272H5.58353V46.707H7.50563V47.8092H4.39062V42.2947H7.51235V43.3632H5.58017L5.58353 43.3666Z" fill="#00685E"/>
<path d="M10.8292 47.8126L9.37415 45.4834V47.8126H8.21484V42.2981H9.75722C10.4662 42.2981 11.2223 42.352 11.6424 43.0093C11.8137 43.2824 11.8977 43.6093 11.8977 43.9295C11.8977 44.4385 11.7028 44.9677 11.266 45.2509C11.0879 45.3688 10.8695 45.4228 10.6578 45.47L12.2472 47.8126H10.8292ZM9.78411 43.2588H9.38087V44.7115H9.80763C10.1336 44.7115 10.4394 44.6812 10.6242 44.3677C10.6947 44.2498 10.725 44.1116 10.725 43.9767C10.725 43.4138 10.2646 43.2588 9.78411 43.2588Z" fill="#00685E"/>
<path d="M15.1368 47.8126L13.6818 45.4834V47.8126H12.5225V42.2981H14.0648C14.7739 42.2981 15.5299 42.352 15.95 43.0093C16.1213 43.2824 16.2054 43.6093 16.2054 43.9295C16.2054 44.4385 16.0105 44.9677 15.5736 45.2509C15.3955 45.3688 15.1771 45.4228 14.9654 45.47L16.5548 47.8126H15.1368ZM14.0917 43.2588H13.6885V44.7115H14.1152C14.4412 44.7115 14.747 44.6812 14.9318 44.3677C15.0024 44.2498 15.0326 44.1116 15.0326 43.9767C15.0326 43.4138 14.5722 43.2588 14.0917 43.2588Z" fill="#00685E"/>
<path d="M19.6362 47.9542C17.8922 47.9542 16.6758 46.7812 16.6758 45.1127C16.6758 43.4442 17.8989 42.1599 19.5791 42.1599C21.2592 42.1599 22.5294 43.4003 22.5294 45.0655C22.5294 46.7306 21.3365 47.9542 19.6329 47.9542H19.6362ZM19.6194 43.306C18.6449 43.306 17.8922 44.088 17.8922 45.079C17.8922 46.07 18.6483 46.8284 19.653 46.8284C20.5872 46.8284 21.3029 46.07 21.3029 45.079C21.3029 44.088 20.5872 43.306 19.6228 43.306H19.6194Z" fill="#00685E"/>
<path d="M25.7823 47.8126H24.6297L22.5732 42.2981H23.8804L25.2581 46.2351L26.6359 42.2981H27.9296L25.779 47.8126H25.7823Z" fill="#00685E"/>
<path d="M28.2959 47.8126V42.2981H29.4955V47.8126H28.2959Z" fill="#00685E"/>
<path d="M31.7369 43.3666V44.4587H33.622V45.5272H31.7369V46.707H33.659V47.8092H30.5439V42.2947H33.6657V43.3632H31.7335L31.7369 43.3666Z" fill="#00685E"/>
<path d="M40.0775 47.2902C39.4323 47.7823 38.7132 47.8126 37.937 47.8126H36.6533V42.2981H37.7656C38.9249 42.2981 40.017 42.3925 40.6622 43.5014C40.9343 43.97 41.0654 44.4453 41.0654 44.9947C41.0654 45.8239 40.7529 46.7744 40.0775 47.2902ZM39.308 43.5891C38.9484 43.2992 38.4578 43.2621 38.0142 43.2621H37.8496V46.8486H38.1755C39.3214 46.8486 39.896 46.1374 39.896 45.0284C39.896 44.4958 39.7314 43.9363 39.3046 43.5925L39.308 43.5891Z" fill="#00685E"/>
<path d="M42.9507 43.3666V44.4587H44.8359V45.5272H42.9507V46.707H44.8728V47.8092H41.7578V42.2947H44.8795V43.3632H42.9474L42.9507 43.3666Z" fill="#00685E"/>
<path d="M45.5918 47.8126V42.2981H46.7914V46.7273H48.6665V47.8126H45.5918Z" fill="#00685E"/>
<path d="M49.251 47.8126V42.2981H50.4506V46.7273H52.3257V47.8126H49.251Z" fill="#00685E"/>
<path d="M55.5044 47.9542C53.7604 47.9542 52.5439 46.7812 52.5439 45.1127C52.5439 43.4442 53.7671 42.1599 55.4473 42.1599C57.1274 42.1599 58.3976 43.4003 58.3976 45.0655C58.3976 46.7306 57.2047 47.9542 55.501 47.9542H55.5044ZM55.4876 43.306C54.5131 43.306 53.7604 44.088 53.7604 45.079C53.7604 46.07 54.5164 46.8284 55.5212 46.8284C56.4553 46.8284 57.1711 46.07 57.1711 45.079C57.1711 44.088 56.4553 43.306 55.4909 43.306H55.4876Z" fill="#00685E"/>
<path d="M62.5137 47.9374C61.8047 47.9374 61.2536 47.6341 60.7529 47.1487L61.5325 46.2891C61.8114 46.6093 62.1172 46.9127 62.5675 46.9127C62.9405 46.9127 63.2597 46.6464 63.2597 46.2554C63.2597 46.0599 63.1824 45.9116 63.0413 45.7869C62.9002 45.6622 62.7153 45.5745 62.544 45.497C61.798 45.1363 61.0554 44.6847 61.0554 43.7476C61.0554 42.7566 61.8887 42.1465 62.8229 42.1465C63.5252 42.1465 63.9351 42.4027 64.4022 42.8881L63.6394 43.7476C63.4277 43.4678 63.1959 43.2251 62.8229 43.2251C62.544 43.2251 62.302 43.4206 62.302 43.7105C62.302 44.57 64.5131 44.4049 64.5131 46.124C64.5131 47.2801 63.6025 47.9374 62.5104 47.9374H62.5137Z" fill="#00685E"/>
<path d="M67.1381 43.3599V47.8126H65.9486V43.3767H64.7725V42.2981H68.3142V43.3599H67.1381Z" fill="#00685E"/>
<path d="M72.37 47.8126L71.9432 46.6969H69.6616L69.2584 47.8126H67.9814L70.1388 42.2981H71.409L73.6671 47.8126H72.3734H72.37ZM70.7739 43.4779L70.0346 45.6587H71.5467L70.7772 43.4779H70.7739Z" fill="#00685E"/>
<path d="M75.6567 43.3599V47.8126H74.4671V43.3767H73.291V42.2981H76.8328V43.3599H75.6567Z" fill="#00685E"/>
<path d="M79.8706 47.9542C78.1266 47.9542 76.9102 46.7812 76.9102 45.1127C76.9102 43.4442 78.1333 42.1599 79.8135 42.1599C81.4936 42.1599 82.7638 43.4003 82.7638 45.0655C82.7638 46.7306 81.5709 47.9542 79.8672 47.9542H79.8706ZM79.8538 43.306C78.8793 43.306 78.1266 44.088 78.1266 45.079C78.1266 46.07 78.8827 46.8284 79.8874 46.8284C80.8216 46.8284 81.5373 46.07 81.5373 45.079C81.5373 44.088 80.8216 43.306 79.8572 43.306H79.8538Z" fill="#00685E"/>
<path d="M85.5088 47.8126V42.2981H86.7084V47.8126H85.5088Z" fill="#00685E"/>
<path d="M89.558 43.3599V47.8126H88.3685V43.3767H87.1924V42.2981H90.7341V43.3599H89.558Z" fill="#00685E"/>
<path d="M94.7899 47.8126L94.3632 46.6969H92.0815L91.6783 47.8126H90.4014L92.5587 42.2981H93.8289L96.087 47.8126H94.7933H94.7899ZM93.1938 43.4779L92.4545 45.6587H93.9667L93.1971 43.4779H93.1938Z" fill="#00685E"/>
<path d="M96.4805 47.8126V42.2981H97.6801V46.7273H99.5551V47.8126H96.4805Z" fill="#00685E"/>
<path d="M100.123 47.8126V42.2981H101.323V47.8126H100.123Z" fill="#00685E"/>
<path d="M106.094 47.8126L105.667 46.6969H103.385L102.982 47.8126H101.705L103.862 42.2981H105.133L107.391 47.8126H106.097H106.094ZM104.497 43.4779L103.758 45.6587H105.27L104.501 43.4779H104.497Z" fill="#00685E"/>
<path d="M111.467 47.8126L108.89 44.1116L108.92 47.8126H107.791V42.2981H108.873L111.434 45.9284L111.41 42.2981H112.532V47.8126H111.467Z" fill="#00685E"/>
<path d="M114.576 43.3666V44.4587H116.461V45.5272H114.576V46.707H116.498V47.8092H113.383V42.2947H116.505V43.3632H114.572L114.576 43.3666Z" fill="#00685E"/>
<path d="M124.582 46.5013C124.139 47.3912 123.204 47.9305 122.112 47.9305C120.469 47.9305 119.323 46.7507 119.323 45.0485C119.323 43.3463 120.476 42.1497 122.149 42.1497C122.852 42.1497 123.514 42.3688 123.981 42.7496C124.223 42.9452 124.323 43.0631 124.565 43.4069L123.591 43.9766C123.389 43.7103 123.278 43.6159 123.03 43.4777C122.764 43.3294 122.485 43.2586 122.18 43.2586C121.192 43.2586 120.499 44.0002 120.499 45.062C120.499 46.1238 121.202 46.8586 122.173 46.8586C122.663 46.8586 123.137 46.6462 123.379 46.3125C123.497 46.1474 123.534 46.0462 123.591 45.7901H122.149V44.7654H124.905V44.8193C124.905 45.5373 124.811 46.0361 124.579 46.4979L124.582 46.5013Z" fill="#00685E"/>
<path d="M128.188 47.8126L126.733 45.4834V47.8126H125.573V42.2981H127.116C127.825 42.2981 128.581 42.352 129.001 43.0093C129.172 43.2824 129.256 43.6093 129.256 43.9295C129.256 44.4385 129.061 44.9677 128.624 45.2509C128.446 45.3688 128.228 45.4228 128.016 45.47L129.606 47.8126H128.188ZM127.146 43.2588H126.743V44.7115H127.169C127.495 44.7115 127.801 44.6812 127.986 44.3677C128.057 44.2498 128.087 44.1116 128.087 43.9767C128.087 43.4138 127.626 43.2588 127.146 43.2588Z" fill="#00685E"/>
<path d="M132.687 47.9542C130.943 47.9542 129.727 46.7812 129.727 45.1127C129.727 43.4442 130.95 42.1599 132.63 42.1599C134.31 42.1599 135.58 43.4003 135.58 45.0655C135.58 46.7306 134.387 47.9542 132.684 47.9542H132.687ZM132.67 43.306C131.696 43.306 130.943 44.088 130.943 45.079C130.943 46.07 131.699 46.8284 132.704 46.8284C133.638 46.8284 134.354 46.07 134.354 45.079C134.354 44.088 133.638 43.306 132.674 43.306H132.67Z" fill="#00685E"/>
<path d="M140.342 47.1081C139.922 47.7182 139.22 47.9609 138.504 47.9609C137.654 47.9609 136.767 47.5868 136.448 46.7508C136.323 46.4306 136.3 46.0868 136.3 45.743V42.2981H137.469V45.7025C137.469 45.9992 137.476 46.2486 137.664 46.498C137.866 46.7711 138.225 46.8823 138.551 46.8823C139.284 46.8823 139.563 46.4205 139.563 45.743V42.2981H140.732V45.3688C140.732 45.9688 140.702 46.5958 140.342 47.1115V47.1081Z" fill="#00685E"/>
<path d="M144.804 45.2812C144.421 45.6554 143.877 45.7194 143.356 45.7194H142.788V47.8126H141.599V42.2981H143.201C143.309 42.2981 143.427 42.2981 143.538 42.3048C144.129 42.3352 144.643 42.4835 145.009 42.9857C145.228 43.2824 145.312 43.6565 145.312 44.0172C145.312 44.4924 145.147 44.9475 144.804 45.2812ZM143.669 43.3295C143.544 43.2992 143.42 43.2992 143.296 43.2992H142.798V44.7048H143.319C143.779 44.7048 144.146 44.516 144.146 44.0104C144.146 43.6969 143.991 43.4104 143.672 43.3295H143.669Z" fill="#00685E"/>
<path fill-rule="evenodd" clip-rule="evenodd" d="M22.0456 16.3569L10.0896 17.5468L2.44824 33.2578C8.69841 33.2578 11.8773 32.6477 15.5333 27.423C17.0757 25.1882 19.811 20.7389 22.0456 16.3535" fill="#00685E"/>
<path fill-rule="evenodd" clip-rule="evenodd" d="M53.7906 1.93692L54.6408 0.1875H29.8282C21.4712 0.1875 17.2069 3.02229 14.6128 8.27391C13.2597 11.0132 12.5854 12.3828 12.5899 12.3828H23.7831C27.765 4.73463 32.6139 2.09871 44.4758 1.93692H53.7872H53.7906Z" fill="#00685E"/>
<path fill-rule="evenodd" clip-rule="evenodd" d="M37.1069 25.2456C36.119 30.7938 31.7539 35.1758 26.2094 36.1836C26.2094 36.1836 22.8928 36.7668 20.7153 36.7668C18.5378 36.7668 0.738281 36.7668 0.738281 36.7668L1.58844 35.0174C1.58844 35.0174 8.44011 34.9567 9.34067 34.9567C11.6593 35.0073 15.7723 34.6938 15.7723 34.6938C20.5137 34.1915 24.2403 31.0938 25.4265 26.5905L26.7605 22.0467C27.4863 18.2783 30.7962 15.43 34.7681 15.43L47.628 14.6143L47.0131 15.8479L43.0513 16.094C40.1043 16.3333 37.742 18.6389 37.4127 21.558L37.1035 25.2422L37.1069 25.2456Z" fill="#DD052B"/>
<path fill-rule="evenodd" clip-rule="evenodd" d="M52.9342 3.68274C37.9102 3.68274 35.4841 6.20743 32.0801 12.3826H48.7069L52.9678 3.62207L52.9308 3.68274H52.9342Z" fill="#00685E"/>
<path fill-rule="evenodd" clip-rule="evenodd" d="M132.469 28.2927C132.469 25.6601 130.359 25.6904 129.246 25.6904H123.49C123.541 25.8051 123.561 25.9365 123.561 26.0713C123.561 26.2197 123.53 26.3579 123.473 26.4792L118.477 36.7836H121.356L123.581 32.1926H126.592L127.506 36.7836H130.597C130.412 36.669 130.167 36.3858 130.076 35.978L129.236 32.1623C130.194 32.0274 132.469 30.6488 132.469 28.2927ZM127.123 30.4398H124.431L125.886 27.4533H128.756C129.431 27.4533 129.703 27.9488 129.703 28.2927C129.703 29.4488 128.658 30.4398 127.123 30.4398Z" fill="#00685E"/>
<path fill-rule="evenodd" clip-rule="evenodd" d="M144.415 25.6904H141.441C141.441 25.9634 141.344 26.2735 141.075 26.587L132.312 36.7835H134.835L136.912 34.2588H142.282L142.332 36.7835H144.973L144.412 25.687L144.415 25.6904ZM138.397 32.4555L142.154 27.9016L142.245 32.4555H138.397Z" fill="#00685E"/>
<path fill-rule="evenodd" clip-rule="evenodd" d="M117.106 34.6668L116.078 36.787H105.335L110.342 26.4759C110.396 26.3545 110.429 26.2163 110.429 26.0714C110.429 25.9365 110.402 25.8051 110.355 25.6938H119.932L118.874 27.8747C118.756 27.6219 118.531 27.45 118.272 27.45H112.755L111.468 30.096H117.052L115.994 32.2769C115.876 32.0241 115.651 31.8488 115.392 31.8488H110.621L109.072 35.0342H116.011C116.29 35.0342 116.888 34.8825 117.106 34.6701" fill="#00685E"/>
<path fill-rule="evenodd" clip-rule="evenodd" d="M96.5507 27.2038L96.9069 26.469C96.9674 26.3477 96.9977 26.2128 96.9977 26.0645C96.9977 25.9263 96.9708 25.8016 96.9204 25.687H99.7867L102.475 33.3993L105.835 26.469C105.892 26.3477 105.926 26.2128 105.926 26.0645C105.926 25.9263 105.899 25.8016 105.849 25.687H108.214L102.831 36.7835H100.768L97.9083 28.5285L93.9095 36.7835H91.9102L96.5575 27.2038H96.5507Z" fill="#00685E"/>
<path fill-rule="evenodd" clip-rule="evenodd" d="M91.4565 25.6904C91.5036 25.805 91.5304 25.9331 91.5304 26.0713C91.5304 26.2196 91.5002 26.3578 91.4431 26.4792L86.4463 36.7869H89.3261L94.7093 25.6904H91.4531H91.4565Z" fill="#00685E"/>
<path fill-rule="evenodd" clip-rule="evenodd" d="M78.0691 25.6904H89.2153L88.1568 27.8814C88.0392 27.6252 87.814 27.4567 87.5553 27.4567H84.6083L80.0719 36.7869H77.1921L81.7251 27.4567H78.059C77.7197 27.4567 77.3097 27.6522 77.0039 27.8848L78.0691 25.6938V25.6904Z" fill="#00685E"/>
<path fill-rule="evenodd" clip-rule="evenodd" d="M72.8977 34.6668L71.8694 36.787H61.1299L66.1367 26.4759C66.1905 26.3545 66.2207 26.2163 66.2207 26.0714C66.2207 25.9365 66.1939 25.8051 66.1468 25.6938H75.7237L74.6652 27.8747C74.5476 27.6219 74.3224 27.45 74.0637 27.45H68.5461L67.2624 30.096H72.8439L71.7854 32.2769C71.6678 32.0241 71.4427 31.8488 71.1839 31.8488H66.4123L64.8632 35.0342H71.8022C72.0811 35.0342 72.6793 34.8825 72.901 34.6701" fill="#00685E"/>
<path fill-rule="evenodd" clip-rule="evenodd" d="M52.302 27.2038L52.6582 26.469C52.7153 26.3477 52.749 26.2128 52.749 26.0645C52.749 25.9263 52.7221 25.8016 52.6683 25.687H55.5346L58.2195 33.3993L61.5798 26.469C61.6403 26.3477 61.6706 26.2128 61.6706 26.0645C61.6706 25.9263 61.6403 25.8016 61.5899 25.687H63.9556L58.5724 36.7835H56.5091L53.6495 28.5285L49.6507 36.7835H47.6514L52.2987 27.2038H52.302Z" fill="#00685E"/>
</g>
<defs>
<clipPath id="clip0_2115_5920">
<rect width="146" height="48" fill="white"/>
</clipPath>
</defs>
</svg>
